<svg width="28" height="28" viewBox="0 0 28 28" fill="none" xmlns="http://www.w3.org/2000/svg">
<path d="M21 14C21 14.1591 20.9385 14.3117 20.8292 14.4242C20.7198 14.5368 20.5714 14.6 20.4167 14.6H8.99175L13.2463 18.9752C13.3005 19.031 13.3435 19.0971 13.3728 19.17C13.4021 19.2428 13.4172 19.3209 13.4172 19.3997C13.4172 19.4785 13.4021 19.5566 13.3728 19.6294C13.3435 19.7023 13.3005 19.7684 13.2463 19.8242C13.1921 19.8799 13.1278 19.9241 13.057 19.9543C12.9861 19.9845 12.9102 20 12.8336 20C12.757 20 12.6811 19.9845 12.6103 19.9543C12.5394 19.9241 12.4751 19.8799 12.4209 19.8242L7.17108 14.4245C7.11684 14.3688 7.07382 14.3026 7.04446 14.2298C7.01511 14.1569 7 14.0788 7 14C7 13.9212 7.01511 13.8431 7.04446 13.7702C7.07382 13.6974 7.11684 13.6312 7.17108 13.5755L12.4209 8.17582C12.5304 8.06325 12.6788 8 12.8336 8C12.9884 8 13.1368 8.06325 13.2463 8.17582C13.3557 8.2884 13.4172 8.44109 13.4172 8.6003C13.4172 8.75951 13.3557 8.9122 13.2463 9.02478L8.99175 13.4H20.4167C20.5714 13.4 20.7198 13.4632 20.8292 13.5758C20.9385 13.6883 21 13.8409 21 14Z" fill="white"/>
</svg>
