<svg width="28" height="28" viewBox="0 0 28 28" fill="none" xmlns="http://www.w3.org/2000/svg">
<path d="M7 14C7 14.1591 7.06146 14.3117 7.17085 14.4242C7.28024 14.5368 7.42861 14.6 7.58331 14.6H19.0083L14.7537 18.9752C14.6995 19.031 14.6565 19.0971 14.6272 19.17C14.5979 19.2428 14.5828 19.3209 14.5828 19.3997C14.5828 19.4785 14.5979 19.5566 14.6272 19.6294C14.6565 19.7023 14.6995 19.7684 14.7537 19.8242C14.8079 19.8799 14.8722 19.9241 14.943 19.9543C15.0139 19.9845 15.0898 20 15.1664 20C15.243 20 15.3189 19.9845 15.3897 19.9543C15.4606 19.9241 15.5249 19.8799 15.5791 19.8242L20.8289 14.4245C20.8832 14.3688 20.9262 14.3026 20.9555 14.2298C20.9849 14.1569 21 14.0788 21 14C21 13.9212 20.9849 13.8431 20.9555 13.7702C20.9262 13.6974 20.8832 13.6312 20.8289 13.5755L15.5791 8.17582C15.4696 8.06325 15.3212 8 15.1664 8C15.0116 8 14.8632 8.06325 14.7537 8.17582C14.6443 8.2884 14.5828 8.44109 14.5828 8.6003C14.5828 8.75951 14.6443 8.9122 14.7537 9.02478L19.0083 13.4H7.58331C7.42861 13.4 7.28024 13.4632 7.17085 13.5758C7.06146 13.6883 7 13.8409 7 14Z" fill="white"/>
</svg>
