<svg width="28" height="28" viewBox="0 0 28 28" fill="none" xmlns="http://www.w3.org/2000/svg">
<path d="M15.2665 17.4295L14.1898 21.046L17.438 19.3594C18.4832 18.8163 19.3512 18.0351 19.9546 17.0943C20.558 16.1536 20.8757 15.0864 20.8755 14.0002C20.8754 12.914 20.5576 11.8469 19.9539 10.9062C19.3503 9.96561 18.4822 9.18457 17.4368 8.64165M9.7909 5.98563L13.8092 6.95465M13.8092 6.95465L12.7325 10.5711M13.8092 6.95465L10.5612 8.64052C9.51592 9.18364 8.64796 9.96483 8.04454 10.9056C7.44112 11.8463 7.12351 12.9135 7.12363 13.9997C7.12375 15.0859 7.4416 16.153 8.04524 17.0937C8.64887 18.0343 9.517 18.8153 10.5624 19.3583M18.208 22.015L14.1914 21.0464" stroke="white" stroke-width="1.5" stroke-linecap="round" stroke-linejoin="round"/>
</svg>
