<svg width="28" height="28" viewBox="0 0 28 28" fill="none" xmlns="http://www.w3.org/2000/svg">
<path d="M20.7692 7H7.23077C6.90435 7 6.5913 7.13409 6.36048 7.37277C6.12967 7.61146 6 7.93518 6 8.27273V19.7273C6 20.0648 6.12967 20.3885 6.36048 20.6272C6.5913 20.8659 6.90435 21 7.23077 21H20.7692C21.0957 21 21.4087 20.8659 21.6395 20.6272C21.8703 20.3885 22 20.0648 22 19.7273V8.27273C22 7.93518 21.8703 7.61146 21.6395 7.37277C21.4087 7.13409 21.0957 7 20.7692 7ZM7.23077 15.9091H8.46154C8.62475 15.9091 8.78127 15.842 8.89668 15.7227C9.01209 15.6034 9.07692 15.4415 9.07692 15.2727C9.07692 15.104 9.01209 14.9421 8.89668 14.8227C8.78127 14.7034 8.62475 14.6364 8.46154 14.6364H7.23077V13.3636H8.46154C8.62475 13.3636 8.78127 13.2966 8.89668 13.1772C9.01209 13.0579 9.07692 12.896 9.07692 12.7273C9.07692 12.5585 9.01209 12.3966 8.89668 12.2773C8.78127 12.158 8.62475 12.0909 8.46154 12.0909H7.23077V10.8182H8.46154C8.62475 10.8182 8.78127 10.7511 8.89668 10.6318C9.01209 10.5125 9.07692 10.3506 9.07692 10.1818C9.07692 10.013 9.01209 9.85118 8.89668 9.73184C8.78127 9.6125 8.62475 9.54545 8.46154 9.54545H7.23077V8.27273H10.3077V19.7273H7.23077V15.9091ZM20.7692 19.7273H11.5385V8.27273H20.7692V19.7273Z" fill="white"/>
</svg>
